<svg id="Layer_4" data-name="Layer 4" xmlns="http://www.w3.org/2000/svg" viewBox="0 0 66.11 23.78"><path d="M6.9,1.1H59.43c2.75,0,5,1.1,5,2.46V19.69c0,1.36-2.23,2.46-5,2.46H6.9c-2.75,0-5-1.1-5-2.46V3.56C1.92,2.2,4.15,1.1,6.9,1.1Z" style="fill:#fff;stroke:#d9d9d9;stroke-miterlimit:7.314285755157471"/><path d="M54.86,14.24h1.72a.32.32,0,0,0,.33-.32V9.06a4.1,4.1,0,0,1,.27-1.71,1.14,1.14,0,0,1,1-.72c1.1,0,1.09,1.23,1.08,2.19V14a.31.31,0,0,0,.3.28h1.73a.31.31,0,0,0,.33-.28V8.28a5.87,5.87,0,0,0-.45-2.81,2.26,2.26,0,0,0-2-1.06,2.35,2.35,0,0,0-2.34,1.82h0V4.85a.34.34,0,0,0-.31-.25H54.89a.34.34,0,0,0-.34.3v9A.33.33,0,0,0,54.86,14.24ZM53.24,9.51c0-2.85-1.38-5.09-3.93-5.09s-3.87,2.21-3.87,5,1.36,5,3.87,5S53.24,12.26,53.24,9.51ZM48,9.13c0-1.1.08-2.86,1.34-2.86a1.09,1.09,0,0,1,1.13.87,8.68,8.68,0,0,1,.26,2.39c0,1.16-.05,3.05-1.4,3.05S48,10.28,48,9.17ZM15.79,14.26h1.72a.32.32,0,0,0,.23-.09.34.34,0,0,0,.1-.23V9.08c0-1,0-2.41,1.19-2.41s1.08,1.2,1.07,2.18h0v5.09a.32.32,0,0,0,.3.32h1.72a.36.36,0,0,0,.24-.09.4.4,0,0,0,.1-.23V9a5,5,0,0,1,.17-1.61,1.12,1.12,0,0,1,1-.74.91.91,0,0,1,1,.78,10.11,10.11,0,0,1,.05,1.41v5.06a.32.32,0,0,0,.3.32h1.72a.32.32,0,0,0,.23-.09.34.34,0,0,0,.1-.23V8.24c0-.13,0-.28,0-.42h0a4,4,0,0,0-.44-2.4,2.5,2.5,0,0,0-2.39-1,2.53,2.53,0,0,0-2,1.65,2.35,2.35,0,0,0-4.5,0h0V4.93a.32.32,0,0,0-.3-.31H15.81a.33.33,0,0,0-.33.32v9A.33.33,0,0,0,15.79,14.26Zm-3,.07a.33.33,0,0,1-.4,0,3.58,3.58,0,0,1-.86-1l-.13-.19a3.38,3.38,0,0,1-2.84,1.28A2.47,2.47,0,0,1,6,11.74,3,3,0,0,1,7.82,8.87a9,9,0,0,1,2.74-.56h0l.49-.05V7.9a2,2,0,0,0-.21-1.15,1.14,1.14,0,0,0-1-.45,1.32,1.32,0,0,0-1.39,1,.37.37,0,0,1-.3.33L6.53,7.49a.3.3,0,0,1-.2-.13.29.29,0,0,1,0-.24c.38-2.06,2.21-2.69,3.85-2.69a3.8,3.8,0,0,1,2.58.88,3.42,3.42,0,0,1,.77,2.76v3A2.19,2.19,0,0,0,14,12.56l.1.14a.35.35,0,0,1,0,.47c-.35.3-1,.85-1.32,1.16Zm-1.73-4.28v.08a3.39,3.39,0,0,1-.32,1.78,1.4,1.4,0,0,1-1.2.8c-.65,0-1-.51-1-1.27,0-1.5,1.31-1.77,2.56-1.77Zm25.52,2.5.1.14c.12.17.14.35,0,.46-.35.3-1,.86-1.32,1.17a.35.35,0,0,1-.4,0,3.85,3.85,0,0,1-.87-1h0a1.4,1.4,0,0,0-.12-.18,3.39,3.39,0,0,1-2.84,1.28,2.47,2.47,0,0,1-2.57-2.74,3,3,0,0,1,1.83-2.88,9.53,9.53,0,0,1,2.76-.55h0l.48-.05V7.89a2,2,0,0,0-.21-1.14,1.14,1.14,0,0,0-1-.46,1.33,1.33,0,0,0-1.38,1.06.37.37,0,0,1-.3.32l-1.67-.18a.33.33,0,0,1-.21-.13.3.3,0,0,1-.05-.24c.38-2.07,2.21-2.69,3.85-2.69a3.87,3.87,0,0,1,2.59.87A3.41,3.41,0,0,1,36,8.05h0v3A2.21,2.21,0,0,0,36.58,12.55Zm-4.47.15a1.38,1.38,0,0,0,1.19-.8,3.43,3.43,0,0,0,.32-1.79V9.66c-1.24,0-2.56.27-2.56,1.77C31.06,12.19,31.45,12.7,32.11,12.7Zm6-7.79V6.2a.33.33,0,0,0,.09.23.36.36,0,0,0,.24.09h3l-3.4,5a1.59,1.59,0,0,0-.21.88V13.7c0,.19.21.4.4.3a6.39,6.39,0,0,1,6,0c.21.11.42-.11.42-.3V12.31a.61.61,0,0,0-.31-.5,6.1,6.1,0,0,0-3.22-.71L44,6.83A1.84,1.84,0,0,0,44.44,6V4.91a.32.32,0,0,0-.09-.23.31.31,0,0,0-.23-.09H38.46a.27.27,0,0,0-.23.08A.32.32,0,0,0,38.14,4.91Z" style="fill-rule:evenodd"/><path d="M40.23,19.54c.37-.95,1.21-3.1.81-3.62h0c-.4-.53-2.63-.25-3.64-.13h0c-.31,0-.35-.23-.08-.43,1.79-1.28,4.71-.91,5.05-.48s-.1,3.42-1.77,4.85C40.36,20,40.11,19.83,40.23,19.54ZM28.22,21a20.13,20.13,0,0,0,11.53-3.6h0c.51-.4.07-1-.45-.75a27.69,27.69,0,0,1-10.75,2.25,27.89,27.89,0,0,1-14.08-3.82c-.35-.21-.62.16-.32.43A20.62,20.62,0,0,0,28.22,21Z" style="fill:#f90;fill-rule:evenodd"/></svg>