<svg id="Layer_1" data-name="Layer 1" xmlns="http://www.w3.org/2000/svg" viewBox="0 0 66.11 23.78"><path d="M63.12,14.55l1.78,1.19a5.21,5.21,0,0,1-4.35,2.31,5.11,5.11,0,0,1-5.18-5.22A5,5,0,0,1,60.3,7.61a4.85,4.85,0,0,1,4.47,3.32l.23.6-7,2.89A2.65,2.65,0,0,0,60.55,16a3,3,0,0,0,2.57-1.45Zm-5.48-1.88,4.66-1.94a2,2,0,0,0-1.93-1.11,2.87,2.87,0,0,0-2.73,3.05Z" style="fill:#ff302f"/><path d="M52,2.29h2.25V17.57H52V2.29Z" style="fill:#20b15a"/><path d="M48.45,8h2.17V17.3c0,3.85-2.27,5.44-5,5.44A5,5,0,0,1,41,19.65l2-.83a2.88,2.88,0,0,0,2.63,1.86c1.73,0,2.79-1.07,2.79-3.07v-.75h-.07a3.58,3.58,0,0,1-2.76,1.19,5.22,5.22,0,0,1,0-10.44,3.65,3.65,0,0,1,2.76,1.16h.07V8Zm.16,4.83a2.94,2.94,0,0,0-2.79-3.19,3,3,0,0,0-2.91,3.19A3,3,0,0,0,45.82,16a2.91,2.91,0,0,0,2.79-3.14Z" style="fill:#3686f7"/><path d="M28.27,12.81a5.22,5.22,0,1,1-10.43,0,5.22,5.22,0,1,1,10.43,0Zm-2.28,0a2.94,2.94,0,1,0-5.87,0,2.94,2.94,0,1,0,5.87,0Z" style="fill:#ff302f"/><path d="M39.67,12.83a5.22,5.22,0,1,1-10.44,0,5.22,5.22,0,1,1,10.44,0Zm-2.29,0a2.94,2.94,0,1,0-5.87,0,2.94,2.94,0,1,0,5.87,0Z" style="fill:#ffba40"/><path d="M9.26,15.76A5.84,5.84,0,0,1,3.42,9.85,5.84,5.84,0,0,1,9.26,3.93a5.71,5.71,0,0,1,4,1.59L14.84,4A7.78,7.78,0,0,0,9.26,1.71,8.25,8.25,0,0,0,1,9.85,8.26,8.26,0,0,0,9.26,18a7.48,7.48,0,0,0,5.68-2.28,7.34,7.34,0,0,0,1.92-5.21A8.9,8.9,0,0,0,16.73,9H9.26v2.17h5.32a4.8,4.8,0,0,1-1.22,2.93,5.44,5.44,0,0,1-4.1,1.62Z" style="fill:#3686f7"/></svg>