<svg id="Layer_3" data-name="Layer 3" xmlns="http://www.w3.org/2000/svg" viewBox="0 0 66.11 23.78"><path d="M43.64,3.29V15.82c1.54.07,3.08.16,4.62.26v2.65q-3.65-.24-7.32-.37V3.29Zm21.41,0-3.51,8.14,3.51,9.05h0c-1-.15-2-.29-3.07-.42L60,15,58,19.6l-2.84-.3,3.43-7.92L55.47,3.29h2.92l1.75,4.53,2-4.53ZM31.69,18.23V3.29h7.53V6H34.39V9.44H38V12.1H34.39v6.13ZM21.63,6V3.29H30V6H27.14V18.3l-2.69.09V6ZM12.42,19.16V3.29H19.9V6H15.11V9.6l3.64,0v2.66c-1.22,0-2.59,0-3.64,0v4C16.7,16.15,18.3,16,19.9,16v2.66C17.39,18.75,14.9,18.94,12.42,19.16ZM7.13,13V3.29H9.82V19.41l-2.95.32-3.12-9v9.35l-2.69.37V3.29H3.62Zm43.35,5.87h0V3.29h2.7V19.12Z" style="fill:#db202c"/></svg>