<svg id="Layer_2" data-name="Layer 2" xmlns="http://www.w3.org/2000/svg" viewBox="0 0 66.11 23.78"><polygon points="21.18 17.34 22.56 10.88 22.56 8.28 14.83 5.22 7.17 4.67 3.67 6.78 3.67 15.33 8.06 18.5 21.18 17.34" style="fill-rule:evenodd"/><g id="Icons"><g id="Color-"><path id="Spotify" d="M19.58,10.74C16,8.6,9.94,8.37,6.5,9.44a1,1,0,1,1-.62-2c4-1.18,10.6-1,14.77,1.52a1.09,1.09,0,0,1,.4,1.47,1.19,1.19,0,0,1-1.47.28m-.11,3.16a.85.85,0,0,1-1.18.28,14.68,14.68,0,0,0-11.23-1.3A.86.86,0,0,1,6,12.32a.87.87,0,0,1,.57-1.07,16.49,16.49,0,0,1,12.68,1.52.8.8,0,0,1,.23,1.13M18.12,17a.68.68,0,0,1-1,.23c-2.65-1.64-6-2-9.93-1.08a.69.69,0,0,1-.84-.5.71.71,0,0,1,.51-.85c4.28-1,8-.56,10.94,1.24a.68.68,0,0,1,.28,1M12.93.7A11.28,11.28,0,1,0,24.21,12,11.32,11.32,0,0,0,12.93.7" style="fill:#00da5a;fill-rule:evenodd"/></g></g><text transform="translate(26.11 15.62)" style="font-size:12.377152442932129px;fill:#00da5a;font-family:Roboto-Regular, Roboto">Spotify</text></svg>