<svg id="Layer_1" data-name="Layer 1" xmlns="http://www.w3.org/2000/svg" xmlns:xlink="http://www.w3.org/1999/xlink" viewBox="0 0 43.04 46.38"><defs><linearGradient id="linear-gradient" x1="10.56" y1="33.99" x2="50.06" y2="33.99" gradientUnits="userSpaceOnUse"><stop offset="0" stop-color="#d946ef"/><stop offset="1" stop-color="#8b5cf6"/></linearGradient><linearGradient id="linear-gradient-2" x1="39.02" y1="15.14" x2="51.67" y2="15.14" xlink:href="#linear-gradient"/><linearGradient id="linear-gradient-3" x1="47.21" y1="10.42" x2="53.6" y2="10.42" xlink:href="#linear-gradient"/><linearGradient id="linear-gradient-4" x1="45.35" y1="24.11" x2="52.32" y2="24.11" xlink:href="#linear-gradient"/><linearGradient id="linear-gradient-5" x1="16.57" y1="33.65" x2="41.18" y2="33.65" xlink:href="#linear-gradient"/></defs><path d="M32.17,15.14H15.87a4.56,4.56,0,0,0-4.56,4.55v28.6a4.56,4.56,0,0,0,4.56,4.56H44.75a4.56,4.56,0,0,0,4.56-4.56V32.06" transform="translate(-10.56 -7.22)" style="fill:none;stroke-linecap:round;stroke-miterlimit:10;stroke-width:1.5px;stroke:url(#linear-gradient)"/><path d="M45.35,8.82l.31,2.78a3.67,3.67,0,0,0,3.22,3.23l2.79.31-2.79.31a3.66,3.66,0,0,0-3.22,3.23l-.31,2.78L45,18.68a3.65,3.65,0,0,0-3.22-3.23L39,15.14l2.79-.31A3.66,3.66,0,0,0,45,11.6Z" transform="translate(-10.56 -7.22)" style="fill:url(#linear-gradient-2)"/><path d="M50.41,7.22l.15,1.41a1.86,1.86,0,0,0,1.63,1.63l1.41.16-1.41.16a1.85,1.85,0,0,0-1.63,1.62l-.15,1.41-.16-1.41a1.84,1.84,0,0,0-1.63-1.62l-1.41-.16,1.41-.16a1.85,1.85,0,0,0,1.63-1.63Z" transform="translate(-10.56 -7.22)" style="fill:url(#linear-gradient-3)"/><path d="M48.83,20.62,49,22.16a2,2,0,0,0,1.78,1.78l1.54.17-1.54.17A2,2,0,0,0,49,26.06l-.17,1.53-.17-1.53a2,2,0,0,0-1.78-1.78l-1.53-.17,1.53-.17a2,2,0,0,0,1.78-1.78Z" transform="translate(-10.56 -7.22)" style="fill:url(#linear-gradient-4)"/><text transform="translate(4.96 36.06)" style="font-size:27.322561264038086px;font-family:Nunito-Light, Nunito;font-weight:300;letter-spacing:0.06201233922128971em">Ai</text><path d="M17.35,43.44a1,1,0,0,1-.56-.15.55.55,0,0,1-.22-.42,1.42,1.42,0,0,1,.13-.6l7.67-17.65a1.38,1.38,0,0,1,.47-.59,1,1,0,0,1,.55-.18A1,1,0,0,1,26,24a1.2,1.2,0,0,1,.43.59l7.67,17.65a1.21,1.21,0,0,1,.15.6.56.56,0,0,1-.19.42.8.8,0,0,1-.53.15.86.86,0,0,1-.61-.2,1.61,1.61,0,0,1-.4-.56l-2.1-5,.9.41H19.46l.93-.41-2.11,5a1.44,1.44,0,0,1-.39.59A.94.94,0,0,1,17.35,43.44Zm8-17.35L20.71,37l-.63-.33H30.66l-.58.33L25.41,26.09Z" transform="translate(-10.56 -7.22)" style="fill:url(#linear-gradient-5)"/><path d="M40,26.61a1.23,1.23,0,0,1-.89-.3,1.12,1.12,0,0,1-.32-.85,1.07,1.07,0,0,1,.32-.83,1.5,1.5,0,0,1,1.77,0,1.07,1.07,0,0,1,.32.83,1.12,1.12,0,0,1-.32.85A1.22,1.22,0,0,1,40,26.61Zm0,16.78a.77.77,0,0,1-.63-.25.92.92,0,0,1-.22-.65V30.79a.85.85,0,0,1,.22-.65.82.82,0,0,1,.63-.22.81.81,0,0,1,.6.22.89.89,0,0,1,.21.65v11.7a1,1,0,0,1-.2.65A.74.74,0,0,1,40,43.39Z" transform="translate(-10.56 -7.22)" style="fill:url(#linear-gradient-5)"/></svg>