<svg id="Layer_1" data-name="Layer 1" xmlns="http://www.w3.org/2000/svg" xmlns:xlink="http://www.w3.org/1999/xlink" viewBox="0 0 127.7 38"><defs><linearGradient id="linear-gradient" x1="28.19" y1="19.16" x2="122.92" y2="19.16" gradientTransform="matrix(1, 0, 0, -1, 0, 39)" gradientUnits="userSpaceOnUse"><stop offset="0" stop-color="#d946ef"/><stop offset="1" stop-color="#8b5cf6"/></linearGradient><linearGradient id="linear-gradient-2" x1="28.19" y1="18.76" x2="122.92" y2="18.76" xlink:href="#linear-gradient"/><linearGradient id="linear-gradient-3" x1="28.19" y1="18.78" x2="122.92" y2="18.78" xlink:href="#linear-gradient"/><linearGradient id="linear-gradient-4" x1="28.19" y1="18.79" x2="122.92" y2="18.79" xlink:href="#linear-gradient"/><linearGradient id="linear-gradient-5" x1="28.19" y1="20.26" x2="122.92" y2="20.26" xlink:href="#linear-gradient"/><linearGradient id="linear-gradient-6" x1="28.19" y1="17" x2="122.92" y2="17" xlink:href="#linear-gradient"/><linearGradient id="linear-gradient-7" x1="28.19" y1="18.77" x2="122.92" y2="18.77" xlink:href="#linear-gradient"/><linearGradient id="linear-gradient-8" x1="28.19" y1="20.95" x2="122.92" y2="20.95" xlink:href="#linear-gradient"/><linearGradient id="linear-gradient-9" x1="28.19" y1="18.79" x2="122.92" y2="18.79" xlink:href="#linear-gradient"/><linearGradient id="linear-gradient-10" x1="28.19" y1="20.81" x2="122.92" y2="20.81" xlink:href="#linear-gradient"/><linearGradient id="linear-gradient-11" x1="1.38" y1="19.63" x2="22.43" y2="19.63" xlink:href="#linear-gradient"/><linearGradient id="linear-gradient-12" x1="16.39" y1="29.32" x2="22.9" y2="29.32" xlink:href="#linear-gradient"/><linearGradient id="linear-gradient-13" x1="20.6" y1="31.76" x2="23.89" y2="31.76" xlink:href="#linear-gradient"/><linearGradient id="linear-gradient-14" x1="19.64" y1="24.72" x2="23.23" y2="24.72" xlink:href="#linear-gradient"/><linearGradient id="linear-gradient-15" x1="4.84" y1="19.81" x2="17.5" y2="19.81" xlink:href="#linear-gradient"/><linearGradient id="linear-gradient-16" x1="4.84" y1="19.69" x2="17.5" y2="19.69" xlink:href="#linear-gradient"/></defs><path d="M34.48,25.23a6.24,6.24,0,0,1-3.34-.88A5.81,5.81,0,0,1,29,21.86,8.73,8.73,0,0,1,28.19,18a9.51,9.51,0,0,1,.43-3,6.33,6.33,0,0,1,1.24-2.26,5.55,5.55,0,0,1,2-1.42,6.41,6.41,0,0,1,2.63-.5,6.35,6.35,0,0,1,3.38.87A5.64,5.64,0,0,1,40,14.17,9,9,0,0,1,40.79,18a9.24,9.24,0,0,1-.44,3,6.4,6.4,0,0,1-1.25,2.27,5.4,5.4,0,0,1-2,1.44A6.55,6.55,0,0,1,34.48,25.23Zm0-1.12a4.92,4.92,0,0,0,2.72-.72,4.66,4.66,0,0,0,1.71-2.07A8.38,8.38,0,0,0,39.5,18a6.88,6.88,0,0,0-1.31-4.49A4.55,4.55,0,0,0,34.48,12a4.93,4.93,0,0,0-2.7.71,4.64,4.64,0,0,0-1.71,2.08A8.2,8.2,0,0,0,29.48,18a6.89,6.89,0,0,0,1.32,4.49A4.49,4.49,0,0,0,34.48,24.11Zm4.64,3.8a.94.94,0,0,1,.13.43.51.51,0,0,1-.13.33.61.61,0,0,1-.31.18.56.56,0,0,1-.38-.05.75.75,0,0,1-.33-.33l-1.24-2a2.53,2.53,0,0,0-1-.92,3,3,0,0,0-1.42-.32l1.06-.48a2.89,2.89,0,0,1,1.5.33,3.62,3.62,0,0,1,1.08,1.25Z" style="fill:url(#linear-gradient)"/><path d="M46.61,25.23a4,4,0,0,1-1.93-.42,2.71,2.71,0,0,1-1.15-1.26,5.07,5.07,0,0,1-.38-2.07v-5.6a.7.7,0,0,1,.16-.48.65.65,0,0,1,.46-.16.6.6,0,0,1,.44.16.64.64,0,0,1,.16.48v5.54A3.17,3.17,0,0,0,45,23.5a2.26,2.26,0,0,0,1.82.69,2.86,2.86,0,0,0,2.2-.91,3.35,3.35,0,0,0,.84-2.38v-5a.69.69,0,0,1,.14-.5.72.72,0,0,1,.9,0,.7.7,0,0,1,.16.48v8.69c0,.42-.2.62-.58.62A.55.55,0,0,1,50,25a.59.59,0,0,1-.16-.46v-2l.24.14a3.43,3.43,0,0,1-1.32,1.85A3.78,3.78,0,0,1,46.61,25.23Z" style="fill:url(#linear-gradient-2)"/><path d="M58,25.23a5.24,5.24,0,0,1-2.58-.6,4.05,4.05,0,0,1-1.66-1.72,5.76,5.76,0,0,1-.58-2.65,5.79,5.79,0,0,1,.58-2.65,4.57,4.57,0,0,1,5.73-2.08,3.61,3.61,0,0,1,1.28.94,4,4,0,0,1,.8,1.48,6.45,6.45,0,0,1,.28,2,.59.59,0,0,1-.15.42.56.56,0,0,1-.41.14H54v-.9h7l-.31.26a5.27,5.27,0,0,0-.34-2,2.73,2.73,0,0,0-1-1.25,3,3,0,0,0-1.65-.44,3.29,3.29,0,0,0-1.86.51,3.07,3.07,0,0,0-1.14,1.4,5.33,5.33,0,0,0-.38,2.05v.1a4.18,4.18,0,0,0,.94,2.94,3.38,3.38,0,0,0,2.64,1,4.94,4.94,0,0,0,1.43-.2,4,4,0,0,0,1.34-.68.77.77,0,0,1,.39-.14.53.53,0,0,1,.32.1.45.45,0,0,1,.18.25.44.44,0,0,1,0,.32.63.63,0,0,1-.27.31,4.37,4.37,0,0,1-1.53.79A6.56,6.56,0,0,1,58,25.23Z" style="fill:url(#linear-gradient-3)"/><path d="M67,25.23A6.59,6.59,0,0,1,65.18,25a5.3,5.3,0,0,1-1.69-.82.51.51,0,0,1-.21-.25.81.81,0,0,1,0-.31.59.59,0,0,1,.14-.27.57.57,0,0,1,.27-.13.52.52,0,0,1,.34.1,5.05,5.05,0,0,0,1.52.72,5.28,5.28,0,0,0,1.48.2,3.21,3.21,0,0,0,1.86-.46,1.44,1.44,0,0,0,.64-1.23,1.25,1.25,0,0,0-.41-1A3,3,0,0,0,67.77,21L66,20.58a3.63,3.63,0,0,1-1.86-.91,2.24,2.24,0,0,1-.6-1.63,2.59,2.59,0,0,1,.45-1.5,2.86,2.86,0,0,1,1.28-1,5,5,0,0,1,1.91-.35,5.61,5.61,0,0,1,1.68.26,4,4,0,0,1,1.4.8.58.58,0,0,1,.21.28.55.55,0,0,1,0,.31.62.62,0,0,1-.17.25.42.42,0,0,1-.28.1.61.61,0,0,1-.34-.12,4.34,4.34,0,0,0-1.22-.65,4.11,4.11,0,0,0-1.3-.21,2.92,2.92,0,0,0-1.79.48,1.54,1.54,0,0,0-.63,1.3,1.33,1.33,0,0,0,.39,1,2.6,2.6,0,0,0,1.23.58l1.74.4a4.26,4.26,0,0,1,1.94.89,2.06,2.06,0,0,1,.64,1.59,2.4,2.4,0,0,1-1,2A4.5,4.5,0,0,1,67,25.23Z" style="fill:url(#linear-gradient-4)"/><path d="M76.44,25.23a3.65,3.65,0,0,1-1.8-.4,2.56,2.56,0,0,1-1.08-1.15,4.17,4.17,0,0,1-.36-1.84V16.36H71.72a.61.61,0,0,1-.41-.13.44.44,0,0,1-.16-.37.42.42,0,0,1,.16-.35.67.67,0,0,1,.41-.13H73.2v-2.5a.55.55,0,0,1,.47-.62h.15a.54.54,0,0,1,.6.62v2.5h2.7a.64.64,0,0,1,.42.13.5.5,0,0,1,.14.35.47.47,0,0,1-.14.37.59.59,0,0,1-.42.13h-2.7v5.32a3,3,0,0,0,.5,1.85,2,2,0,0,0,1.66.64,1.9,1.9,0,0,0,.67-.09A1.38,1.38,0,0,1,77.7,24a.33.33,0,0,1,.25.12.57.57,0,0,1,.11.38.71.71,0,0,1-.07.32.32.32,0,0,1-.25.2,3.1,3.1,0,0,1-.6.15A4.14,4.14,0,0,1,76.44,25.23Z" style="fill:url(#linear-gradient-5)"/><path d="M79.62,28.79A.56.56,0,0,1,79,28.3V15.88a.64.64,0,0,1,.16-.48.71.71,0,0,1,.9,0,.7.7,0,0,1,.16.48v2L80,17.8a3.42,3.42,0,0,1,1.3-1.9,3.89,3.89,0,0,1,2.31-.7,4.13,4.13,0,0,1,2.27.62,4,4,0,0,1,1.5,1.74,6.26,6.26,0,0,1,.53,2.66,6.28,6.28,0,0,1-.53,2.67,4,4,0,0,1-1.49,1.73,4.16,4.16,0,0,1-2.28.61,3.8,3.8,0,0,1-2.31-.7A3.4,3.4,0,0,1,80,22.68h.22v5.49a.65.65,0,0,1-.16.46A.6.6,0,0,1,79.62,28.79Zm3.81-4.58a3,3,0,0,0,2.84-1.83,5.32,5.32,0,0,0,.4-2.16,4.38,4.38,0,0,0-.88-2.94,2.91,2.91,0,0,0-2.36-1,3.1,3.1,0,0,0-1.7.47,3,3,0,0,0-1.13,1.36,5.11,5.11,0,0,0-.4,2.15,4.43,4.43,0,0,0,.88,3A2.9,2.9,0,0,0,83.43,24.21Z" style="fill:url(#linear-gradient-6)"/><path d="M93.87,25.23a4.35,4.35,0,0,1-2.36-.62A4.08,4.08,0,0,1,90,22.88a6.08,6.08,0,0,1-.55-2.66,6.24,6.24,0,0,1,.31-2.06,4.65,4.65,0,0,1,.9-1.59,3.75,3.75,0,0,1,1.42-1,4.59,4.59,0,0,1,1.83-.35,4.41,4.41,0,0,1,2.37.62,4.17,4.17,0,0,1,1.55,1.75,6.06,6.06,0,0,1,.55,2.65A6.31,6.31,0,0,1,98,22.3a4.56,4.56,0,0,1-.9,1.57,3.79,3.79,0,0,1-1.41,1A4.55,4.55,0,0,1,93.87,25.23Zm0-1a2.93,2.93,0,0,0,2.84-1.83,5.34,5.34,0,0,0,.39-2.16,4.44,4.44,0,0,0-.87-2.94,2.91,2.91,0,0,0-2.36-1,3.13,3.13,0,0,0-1.71.47A3,3,0,0,0,91,18.07a5.26,5.26,0,0,0-.39,2.15,4.43,4.43,0,0,0,.88,3,2.87,2.87,0,0,0,2.38,1Z" style="fill:url(#linear-gradient-7)"/><path d="M104.16,25.23a4.12,4.12,0,0,1-2.27-.61,3.94,3.94,0,0,1-1.5-1.73,6.28,6.28,0,0,1-.53-2.67,6.25,6.25,0,0,1,.52-2.66,4,4,0,0,1,1.49-1.74,4.2,4.2,0,0,1,2.29-.62,3.89,3.89,0,0,1,2.31.7,3.34,3.34,0,0,1,1.28,1.88h-.22V11.49a.54.54,0,0,1,.45-.62h.15a.64.64,0,0,1,.46.15.59.59,0,0,1,.16.47V24.57a.59.59,0,0,1-.16.46.6.6,0,0,1-.44.16.63.63,0,0,1-.46-.16.65.65,0,0,1-.16-.46V22.52l.22.14a3.31,3.31,0,0,1-1.28,1.87A3.8,3.8,0,0,1,104.16,25.23Zm.16-1a2.93,2.93,0,0,0,2.84-1.83,5.34,5.34,0,0,0,.39-2.16,4.44,4.44,0,0,0-.87-2.94,2.91,2.91,0,0,0-2.36-1,3.13,3.13,0,0,0-1.71.47,3,3,0,0,0-1.12,1.36,5.26,5.26,0,0,0-.39,2.15,4.43,4.43,0,0,0,.88,3,2.88,2.88,0,0,0,2.34.93Z" style="fill:url(#linear-gradient-8)"/><path d="M114.47,25.23a3.89,3.89,0,0,1-1.75-.38,3,3,0,0,1-1.22-1,2.57,2.57,0,0,1-.45-1.47,2.49,2.49,0,0,1,.54-1.7,3.06,3.06,0,0,1,1.82-.87,18.73,18.73,0,0,1,3.51-.25h.86v.9h-.84a20.13,20.13,0,0,0-2.8.15,2.42,2.42,0,0,0-1.41.55,1.49,1.49,0,0,0-.4,1.12,1.85,1.85,0,0,0,.62,1.45,2.35,2.35,0,0,0,1.68.56,2.74,2.74,0,0,0,1.5-.41,2.84,2.84,0,0,0,1-1.12,3.47,3.47,0,0,0,.38-1.64V18.8a2.89,2.89,0,0,0-.54-1.95,2.17,2.17,0,0,0-1.71-.61,5.6,5.6,0,0,0-1.47.2,6.92,6.92,0,0,0-1.51.64.54.54,0,0,1-.39.08.44.44,0,0,1-.26-.16.81.81,0,0,1-.12-.29.62.62,0,0,1,0-.33.55.55,0,0,1,.28-.26,8.74,8.74,0,0,1,1.71-.69,6.44,6.44,0,0,1,1.69-.23,4.33,4.33,0,0,1,1.94.4,2.46,2.46,0,0,1,1.14,1.2,4.83,4.83,0,0,1,.37,2.06v5.71a.68.68,0,0,1-.14.46.51.51,0,0,1-.42.16.6.6,0,0,1-.44-.16.65.65,0,0,1-.16-.46V22.74h.2a3.17,3.17,0,0,1-.64,1.33,2.85,2.85,0,0,1-1.14.86A3.7,3.7,0,0,1,114.47,25.23Z" style="fill:url(#linear-gradient-9)"/><path d="M122,12.88a.86.86,0,0,1-.65-.22.92.92,0,0,1,0-1.22.9.9,0,0,1,.65-.21.94.94,0,0,1,.65.21.92.92,0,0,1,0,1.22A.86.86,0,0,1,122,12.88Zm0,12.27a.61.61,0,0,1-.46-.18.7.7,0,0,1-.16-.48V15.94a.64.64,0,0,1,.16-.48.71.71,0,0,1,.9,0,.7.7,0,0,1,.16.48v8.55a.71.71,0,0,1-.15.48A.54.54,0,0,1,122,25.15Z" style="fill:url(#linear-gradient-10)"/><path d="M12.86,9.67H4.48A2.35,2.35,0,0,0,2.13,12V26.73a2.36,2.36,0,0,0,2.35,2.34H19.34a2.34,2.34,0,0,0,2.34-2.34h0V18.38" style="fill:none;stroke-linecap:round;stroke-miterlimit:10;stroke-width:1.5px;stroke:url(#linear-gradient-11)"/><path d="M19.64,6.42l.16,1.43a1.89,1.89,0,0,0,1.66,1.66l1.44.16-1.44.16a1.89,1.89,0,0,0-1.66,1.66l-.16,1.44-.16-1.44a1.89,1.89,0,0,0-1.66-1.66l-1.43-.16,1.43-.16a1.89,1.89,0,0,0,1.66-1.66Z" style="fill:url(#linear-gradient-12)"/><path d="M22.25,5.6l.08.72a1,1,0,0,0,.83.84l.73.08-.73.08a1,1,0,0,0-.83.84l-.08.73-.09-.73a1,1,0,0,0-.83-.84l-.73-.08.73-.08a1,1,0,0,0,.83-.84Z" style="fill:url(#linear-gradient-13)"/><path d="M21.44,12.49l.08.79a1.06,1.06,0,0,0,.92.92l.79.09-.79.09a1,1,0,0,0-.92.91l-.08.79-.09-.79a1,1,0,0,0-.92-.91l-.79-.09.79-.09a1.06,1.06,0,0,0,.92-.92Z" style="fill:url(#linear-gradient-14)"/><path d="M5.24,24.23A.51.51,0,0,1,5,24.16a.27.27,0,0,1-.11-.22A.81.81,0,0,1,5,23.63l4-9.08a.78.78,0,0,1,.24-.3.56.56,0,0,1,.28-.1.54.54,0,0,1,.3.1.61.61,0,0,1,.22.3l4,9.08a.68.68,0,0,1,.08.31.32.32,0,0,1-.1.22.42.42,0,0,1-.27.07.46.46,0,0,1-.32-.1.72.72,0,0,1-.2-.29L11.94,21.3l.47.21H6.32l.48-.21L5.72,23.84a.71.71,0,0,1-.21.3A.44.44,0,0,1,5.24,24.23Zm4.12-8.92L7,20.93l-.32-.17h5.44l-.3.17-2.4-5.62Z" style="fill:url(#linear-gradient-15)"/><path d="M16.88,15.57a.64.64,0,0,1-.46-.15.6.6,0,0,1-.16-.44.54.54,0,0,1,.16-.42.78.78,0,0,1,.92,0,.54.54,0,0,1,.16.42.6.6,0,0,1-.16.44A.64.64,0,0,1,16.88,15.57Zm0,8.64a.39.39,0,0,1-.32-.13.52.52,0,0,1-.12-.34v-6a.4.4,0,0,1,.44-.45.4.4,0,0,1,.31.11.47.47,0,0,1,.11.34v6a.52.52,0,0,1-.1.34A.39.39,0,0,1,16.88,24.21Z" style="fill:url(#linear-gradient-16)"/></svg>