<svg id="Layer_1" data-name="Layer 1" xmlns="http://www.w3.org/2000/svg" xmlns:xlink="http://www.w3.org/1999/xlink" viewBox="0 0 109.93 25.63"><defs><linearGradient id="linear-gradient" x1="1.36" y1="70.8" x2="96.09" y2="70.8" gradientTransform="translate(0 -56)" gradientUnits="userSpaceOnUse"><stop offset="0" stop-color="#d946ef"/><stop offset="1" stop-color="#8b5cf6"/></linearGradient><linearGradient id="linear-gradient-2" x1="1.36" y1="71.2" x2="96.09" y2="71.2" xlink:href="#linear-gradient"/><linearGradient id="linear-gradient-3" x1="1.36" y1="71.18" x2="96.09" y2="71.18" xlink:href="#linear-gradient"/><linearGradient id="linear-gradient-4" x1="1.36" y1="71.17" x2="96.09" y2="71.17" xlink:href="#linear-gradient"/><linearGradient id="linear-gradient-5" x1="1.36" y1="69.71" x2="96.09" y2="69.71" xlink:href="#linear-gradient"/><linearGradient id="linear-gradient-6" x1="1.36" y1="72.96" x2="96.09" y2="72.96" xlink:href="#linear-gradient"/><linearGradient id="linear-gradient-7" x1="1.36" y1="71.19" x2="96.09" y2="71.19" xlink:href="#linear-gradient"/><linearGradient id="linear-gradient-8" x1="1.36" y1="69.01" x2="96.09" y2="69.01" xlink:href="#linear-gradient"/><linearGradient id="linear-gradient-9" x1="86.53" y1="70.33" x2="107.58" y2="70.33" xlink:href="#linear-gradient"/><linearGradient id="linear-gradient-10" x1="101.54" y1="60.64" x2="108.05" y2="60.64" xlink:href="#linear-gradient"/><linearGradient id="linear-gradient-11" x1="105.75" y1="58.21" x2="109.04" y2="58.21" xlink:href="#linear-gradient"/><linearGradient id="linear-gradient-12" x1="104.79" y1="65.25" x2="108.38" y2="65.25" xlink:href="#linear-gradient"/><linearGradient id="linear-gradient-13" x1="89.99" y1="70.15" x2="102.65" y2="70.15" xlink:href="#linear-gradient"/><linearGradient id="linear-gradient-14" x1="89.99" y1="70.27" x2="102.65" y2="70.27" xlink:href="#linear-gradient"/></defs><path d="M7.65,20.19a6.24,6.24,0,0,1-3.34-.88,5.75,5.75,0,0,1-2.14-2.49A8.73,8.73,0,0,1,1.36,13a9.56,9.56,0,0,1,.43-3A6.49,6.49,0,0,1,3,7.7,5.67,5.67,0,0,1,5,6.28a6.41,6.41,0,0,1,2.63-.5A6.35,6.35,0,0,1,11,6.65a5.64,5.64,0,0,1,2.13,2.48A9,9,0,0,1,14,13a9.24,9.24,0,0,1-.44,3,6.31,6.31,0,0,1-1.25,2.27,5.32,5.32,0,0,1-2,1.44A6.55,6.55,0,0,1,7.65,20.19Zm0-1.12a4.92,4.92,0,0,0,2.72-.72,4.56,4.56,0,0,0,1.71-2.07A8.35,8.35,0,0,0,12.67,13a6.88,6.88,0,0,0-1.31-4.49A4.56,4.56,0,0,0,7.65,7,4.93,4.93,0,0,0,5,7.67,4.69,4.69,0,0,0,3.24,9.75,8.2,8.2,0,0,0,2.65,13,6.86,6.86,0,0,0,4,17.45,4.49,4.49,0,0,0,7.65,19.07Zm4.64,3.8a.94.94,0,0,1,.13.43.51.51,0,0,1-.13.33.55.55,0,0,1-.31.18.56.56,0,0,1-.38,0,.7.7,0,0,1-.33-.33l-1.24-2a2.53,2.53,0,0,0-1-.92,3,3,0,0,0-1.42-.32l1.06-.48a3,3,0,0,1,1.5.33,3.71,3.71,0,0,1,1.08,1.25Z" style="fill:url(#linear-gradient)"/><path d="M19.78,20.19a3.92,3.92,0,0,1-1.93-.42,2.66,2.66,0,0,1-1.15-1.26,5,5,0,0,1-.38-2.07v-5.6a.71.71,0,0,1,.16-.48.65.65,0,0,1,.46-.16.6.6,0,0,1,.44.16.61.61,0,0,1,.16.48v5.54a3.15,3.15,0,0,0,.63,2.08,2.22,2.22,0,0,0,1.82.69,2.85,2.85,0,0,0,2.2-.91A3.34,3.34,0,0,0,23,15.86v-5a.7.7,0,0,1,.14-.5.72.72,0,0,1,.9,0,.71.71,0,0,1,.16.48v8.69c0,.42-.2.62-.58.62a.55.55,0,0,1-.48-.19A.59.59,0,0,1,23,19.5v-2l.24.14a3.43,3.43,0,0,1-1.32,1.85A3.78,3.78,0,0,1,19.78,20.19Z" style="fill:url(#linear-gradient-2)"/><path d="M31.17,20.19a5.16,5.16,0,0,1-2.58-.6,4.05,4.05,0,0,1-1.66-1.72,5.76,5.76,0,0,1-.58-2.65,5.82,5.82,0,0,1,.58-2.65,4.58,4.58,0,0,1,5.73-2.08,3.73,3.73,0,0,1,1.28.94,4,4,0,0,1,.8,1.48,6.49,6.49,0,0,1,.28,2,.57.57,0,0,1-.15.42.56.56,0,0,1-.41.14H27.17v-.9h7l-.31.26a5.27,5.27,0,0,0-.34-2,2.78,2.78,0,0,0-1-1.25,3.07,3.07,0,0,0-1.65-.44,3.31,3.31,0,0,0-1.86.51,3.07,3.07,0,0,0-1.14,1.4,5.33,5.33,0,0,0-.38,2v.1a4.17,4.17,0,0,0,.94,2.94,3.35,3.35,0,0,0,2.64,1,4.58,4.58,0,0,0,1.43-.2,4,4,0,0,0,1.34-.68.8.8,0,0,1,.39-.14.58.58,0,0,1,.32.1.45.45,0,0,1,.18.25.44.44,0,0,1,0,.32.63.63,0,0,1-.27.31,4.21,4.21,0,0,1-1.53.79A6.56,6.56,0,0,1,31.17,20.19Z" style="fill:url(#linear-gradient-3)"/><path d="M40.17,20.19A6.59,6.59,0,0,1,38.35,20a5.3,5.3,0,0,1-1.69-.82.52.52,0,0,1-.21-.25.81.81,0,0,1,0-.31.59.59,0,0,1,.14-.27.68.68,0,0,1,.27-.13.59.59,0,0,1,.34.1,4.83,4.83,0,0,0,1.52.72,4.94,4.94,0,0,0,1.48.2,3.21,3.21,0,0,0,1.86-.46,1.43,1.43,0,0,0,.64-1.23,1.27,1.27,0,0,0-.41-1A3,3,0,0,0,40.94,16l-1.77-.42a3.59,3.59,0,0,1-1.86-.91,2.24,2.24,0,0,1-.6-1.63,2.59,2.59,0,0,1,.45-1.5,2.93,2.93,0,0,1,1.28-1,5,5,0,0,1,1.91-.35,5.61,5.61,0,0,1,1.68.26,4,4,0,0,1,1.4.8.58.58,0,0,1,.21.28.55.55,0,0,1,0,.31.53.53,0,0,1-.17.25.42.42,0,0,1-.28.1.54.54,0,0,1-.34-.12,4.34,4.34,0,0,0-1.22-.65,4.11,4.11,0,0,0-1.3-.21,2.92,2.92,0,0,0-1.79.48,1.54,1.54,0,0,0-.63,1.3,1.36,1.36,0,0,0,.39,1,2.6,2.6,0,0,0,1.23.58l1.74.4a4.36,4.36,0,0,1,1.94.89,2,2,0,0,1,.64,1.59,2.4,2.4,0,0,1-1,2A4.48,4.48,0,0,1,40.17,20.19Z" style="fill:url(#linear-gradient-4)"/><path d="M49.61,20.19a3.54,3.54,0,0,1-1.8-.4,2.56,2.56,0,0,1-1.08-1.15,4.15,4.15,0,0,1-.36-1.84V11.32H44.89a.61.61,0,0,1-.41-.13.44.44,0,0,1-.16-.37.48.48,0,0,1,.16-.35.74.74,0,0,1,.41-.13h1.48V7.84a.55.55,0,0,1,.47-.62H47a.54.54,0,0,1,.6.47.38.38,0,0,1,0,.15v2.5h2.7a.7.7,0,0,1,.42.13.52.52,0,0,1,.14.35.46.46,0,0,1-.14.37.54.54,0,0,1-.42.13h-2.7v5.32a3,3,0,0,0,.5,1.85,2,2,0,0,0,1.66.64,1.87,1.87,0,0,0,.67-.09,1.42,1.42,0,0,1,.45-.08.33.33,0,0,1,.25.12.58.58,0,0,1,.11.38.71.71,0,0,1-.07.32.3.3,0,0,1-.25.2,2.93,2.93,0,0,1-.6.15A4,4,0,0,1,49.61,20.19Z" style="fill:url(#linear-gradient-5)"/><path d="M52.79,23.75a.56.56,0,0,1-.62-.49V10.84a.65.65,0,0,1,.16-.48.72.72,0,0,1,.9,0,.71.71,0,0,1,.16.48v2l-.22-.08a3.45,3.45,0,0,1,1.3-1.9,4,4,0,0,1,2.31-.7,4.22,4.22,0,0,1,2.27.62,4,4,0,0,1,1.5,1.74,6.26,6.26,0,0,1,.53,2.66,6.28,6.28,0,0,1-.53,2.67,4,4,0,0,1-1.49,1.73,4.16,4.16,0,0,1-2.28.61,3.77,3.77,0,0,1-2.31-.7,3.4,3.4,0,0,1-1.3-1.85h.22v5.49a.63.63,0,0,1-.16.46A.6.6,0,0,1,52.79,23.75Zm3.81-4.58a3,3,0,0,0,2.84-1.83,5.32,5.32,0,0,0,.4-2.16A4.38,4.38,0,0,0,59,12.24a2.91,2.91,0,0,0-2.36-1,3.1,3.1,0,0,0-1.7.47,3.06,3.06,0,0,0-1.13,1.36,5.14,5.14,0,0,0-.4,2.15,4.42,4.42,0,0,0,.88,3A2.9,2.9,0,0,0,56.6,19.17Z" style="fill:url(#linear-gradient-6)"/><path d="M67,20.19a4.26,4.26,0,0,1-2.36-.62,4.08,4.08,0,0,1-1.51-1.73,6.08,6.08,0,0,1-.55-2.66,6.28,6.28,0,0,1,.31-2.06,4.74,4.74,0,0,1,.9-1.59,3.83,3.83,0,0,1,1.42-1,4.59,4.59,0,0,1,1.83-.35,4.47,4.47,0,0,1,2.37.62A4.23,4.23,0,0,1,71,12.55a6.06,6.06,0,0,1,.55,2.65,6.26,6.26,0,0,1-.38,2.06,4.47,4.47,0,0,1-.9,1.57,3.71,3.71,0,0,1-1.41,1A4.35,4.35,0,0,1,67,20.19Zm0-1a2.91,2.91,0,0,0,2.84-1.83,5.31,5.31,0,0,0,.39-2.16,4.44,4.44,0,0,0-.87-2.94,2.91,2.91,0,0,0-2.36-1,3.13,3.13,0,0,0-1.71.47A3,3,0,0,0,64.17,13a5.29,5.29,0,0,0-.39,2.15,4.42,4.42,0,0,0,.88,3,2.85,2.85,0,0,0,2.38,1Z" style="fill:url(#linear-gradient-7)"/><path d="M77.33,20.19a4.12,4.12,0,0,1-2.27-.61,3.89,3.89,0,0,1-1.5-1.73A6.28,6.28,0,0,1,73,15.18a6.41,6.41,0,0,1,.52-2.66A4.12,4.12,0,0,1,75,10.78a4.29,4.29,0,0,1,2.29-.62,3.93,3.93,0,0,1,2.31.7,3.32,3.32,0,0,1,1.28,1.88H80.7V6.45a.54.54,0,0,1,.45-.62h.15a.64.64,0,0,1,.46.15.59.59,0,0,1,.16.47V19.53a.56.56,0,0,1-.16.46.71.71,0,0,1-.9,0,.63.63,0,0,1-.16-.46V17.48l.22.14a3.24,3.24,0,0,1-1.28,1.87A3.73,3.73,0,0,1,77.33,20.19Zm.16-1a2.91,2.91,0,0,0,2.84-1.83,5.31,5.31,0,0,0,.39-2.16,4.44,4.44,0,0,0-.87-2.94,2.91,2.91,0,0,0-2.36-1,3.13,3.13,0,0,0-1.71.47,3,3,0,0,0-1.12,1.36,5.29,5.29,0,0,0-.39,2.15,4.42,4.42,0,0,0,.88,3,2.85,2.85,0,0,0,2.34.93Z" style="fill:url(#linear-gradient-8)"/><path d="M98,4.63H89.63A2.35,2.35,0,0,0,87.28,7V21.69A2.35,2.35,0,0,0,89.63,24h14.86a2.34,2.34,0,0,0,2.34-2.34h0V13.34" style="fill:none;stroke-linecap:round;stroke-miterlimit:10;stroke-width:1.5px;stroke:url(#linear-gradient-9)"/><path d="M104.79,1.38,105,2.81a1.88,1.88,0,0,0,1.66,1.66l1.44.16-1.44.16A1.88,1.88,0,0,0,105,6.45l-.16,1.44-.16-1.44A1.89,1.89,0,0,0,103,4.79l-1.43-.16L103,4.47a1.89,1.89,0,0,0,1.66-1.66Z" style="fill:url(#linear-gradient-10)"/><path d="M107.4.56l.08.72a1,1,0,0,0,.83.84l.73.08-.73.08a1,1,0,0,0-.83.84l-.08.73-.09-.73a1,1,0,0,0-.83-.84l-.73-.08.73-.08a1,1,0,0,0,.83-.84Z" style="fill:url(#linear-gradient-11)"/><path d="M106.59,7.45l.08.79a1.06,1.06,0,0,0,.92.92l.79.09-.79.09a1,1,0,0,0-.92.91l-.08.79-.09-.79a1,1,0,0,0-.92-.91l-.79-.09.79-.09a1.06,1.06,0,0,0,.92-.92Z" style="fill:url(#linear-gradient-12)"/><path d="M90.39,19.19a.4.4,0,0,1-.24-.07A.27.27,0,0,1,90,18.9a.72.72,0,0,1,.11-.31l4-9.08a.7.7,0,0,1,.24-.3.47.47,0,0,1,.58,0,.65.65,0,0,1,.22.3l4,9.08a.84.84,0,0,1,.08.31.32.32,0,0,1-.1.22.38.38,0,0,1-.27.07.41.41,0,0,1-.32-.1.72.72,0,0,1-.2-.29l-1.29-2.54.47.21H91.47l.48-.21L90.87,18.8a.81.81,0,0,1-.21.3A.46.46,0,0,1,90.39,19.19Zm4.12-8.92-2.36,5.62-.32-.17h5.44l-.3.17-2.4-5.62Z" style="fill:url(#linear-gradient-13)"/><path d="M102,10.53a.54.54,0,0,1-.62-.59.52.52,0,0,1,.16-.42.78.78,0,0,1,.92,0,.56.56,0,0,1,.16.42.63.63,0,0,1-.16.44A.61.61,0,0,1,102,10.53Zm0,8.64a.39.39,0,0,1-.32-.13.46.46,0,0,1-.12-.34v-6a.4.4,0,0,1,.34-.45h.1a.41.41,0,0,1,.31.11.48.48,0,0,1,.11.34v6a.59.59,0,0,1-.1.34A.39.39,0,0,1,102,19.17Z" style="fill:url(#linear-gradient-14)"/></svg>