<svg id="Layer_1" data-name="Layer 1" xmlns="http://www.w3.org/2000/svg" viewBox="0 0 127.7 38"><g style="isolation:isolate"><text transform="translate(26.91 26.74)" style="isolation:isolate;font-size:19.981571197509766px;fill:#fff;font-family:Nunito-Light, Nunito;font-weight:300;letter-spacing:-0.022994821163375905em">Que</text><text transform="translate(62.22 26.74)" style="isolation:isolate;font-size:19.981571197509766px;fill:#fff;font-family:Nunito-Light, Nunito;font-weight:300;letter-spacing:-0.028004319929042284em">s</text><text transform="translate(71.19 26.74)" style="isolation:isolate;font-size:19.981571197509766px;fill:#fff;font-family:Nunito-Light, Nunito;font-weight:300;letter-spacing:-0.02301925774272062em">tpodai</text></g><path d="M12.86,11.34H4.48a2.36,2.36,0,0,0-2.35,2.34V28.39a2.35,2.35,0,0,0,2.35,2.35H19.34a2.36,2.36,0,0,0,2.34-2.35V20" style="fill:none;stroke:#fff;stroke-linecap:round;stroke-miterlimit:10;stroke-width:1.5px"/><path d="M19.64,8.08l.16,1.44a1.87,1.87,0,0,0,1.66,1.65l1.44.17-1.44.16a1.89,1.89,0,0,0-1.66,1.66l-.16,1.43-.16-1.43a1.87,1.87,0,0,0-1.66-1.66l-1.43-.16,1.43-.17a1.86,1.86,0,0,0,1.66-1.65Z" style="fill:#fff"/><path d="M22.25,7.26l.08.73a1,1,0,0,0,.83.84l.73.08L23.16,9a1,1,0,0,0-.83.84l-.08.72-.09-.72A1,1,0,0,0,21.33,9l-.73-.08.73-.08A1,1,0,0,0,22.16,8Z" style="fill:#fff"/><path d="M21.44,14.16l.08.79a1,1,0,0,0,.92.91l.79.09-.79.09a1,1,0,0,0-.92.91l-.08.79L21.35,17a1,1,0,0,0-.92-.91L19.64,16l.79-.09a1,1,0,0,0,.92-.91Z" style="fill:#fff"/><text transform="translate(4.3 25.81)" style="isolation:isolate;font-size:14.056866645812988px;fill:#fff;font-family:Nunito-Light, Nunito;font-weight:300;letter-spacing:0.0620040051037698em">Ai</text></svg>