<svg id="Layer_1" data-name="Layer 1" xmlns="http://www.w3.org/2000/svg" viewBox="0 0 127.7 38"><text transform="translate(41.26 29.63)" style="font-size:30.438385009765625px;font-family:Nunito-Light, Nunito;font-weight:300;letter-spacing:-0.029997844406234177em">v<tspan x="14.58" y="0" style="letter-spacing:-0.02403035878103679em">e</tspan><tspan x="29.89" y="0" style="letter-spacing:-0.02900326346870128em">r</tspan><tspan x="39.42" y="0" style="letter-spacing:-0.02399827552498734em">si</tspan><tspan x="59.26" y="0" style="letter-spacing:-0.017998706643740505em">t</tspan><tspan x="68.91" y="0" style="letter-spacing:-0.02399827552498734em">y</tspan></text><text transform="translate(41.26 29.63)" style="font-size:30.438385009765625px;fill:#fff;font-family:Nunito-Light, Nunito;font-weight:300;letter-spacing:-0.029997844406234177em">v<tspan x="14.58" y="0" style="letter-spacing:-0.02403035878103679em">e</tspan><tspan x="29.89" y="0" style="letter-spacing:-0.02900326346870128em">r</tspan><tspan x="39.42" y="0" style="letter-spacing:-0.02399827552498734em">si</tspan><tspan x="59.26" y="0" style="letter-spacing:-0.017998706643740505em">t</tspan><tspan x="68.91" y="0" style="letter-spacing:-0.02399827552498734em">y</tspan></text><path d="M19.86,6.17H7.09A3.57,3.57,0,0,0,3.52,9.74V32.15a3.57,3.57,0,0,0,3.57,3.58H29.73a3.57,3.57,0,0,0,3.57-3.58V19.43" style="fill:none;stroke:#fff;stroke-linecap:round;stroke-miterlimit:10;stroke-width:1.5px"/><path d="M30.19,1.21l.25,2.19A2.86,2.86,0,0,0,33,5.92l2.19.25L33,6.42a2.86,2.86,0,0,0-2.52,2.52l-.25,2.19L30,8.94a2.86,2.86,0,0,0-2.53-2.52l-2.18-.25,2.18-.25A2.86,2.86,0,0,0,30,3.4Z" style="fill:#fff"/><path d="M34.16,0l.12,1.1a1.47,1.47,0,0,0,1.28,1.28l1.1.12-1.1.12a1.47,1.47,0,0,0-1.28,1.28L34.16,5,34,3.87a1.45,1.45,0,0,0-1.27-1.28l-1.11-.12,1.11-.12A1.45,1.45,0,0,0,34,1.07Z" style="fill:#fff"/><path d="M32.92,10.47l.14,1.2a1.57,1.57,0,0,0,1.39,1.39l1.2.14-1.2.14a1.57,1.57,0,0,0-1.39,1.39l-.14,1.2-.13-1.2a1.57,1.57,0,0,0-1.39-1.39l-1.21-.14,1.21-.14a1.57,1.57,0,0,0,1.39-1.39Z" style="fill:#fff"/><text transform="translate(6.82 28.23)" style="font-size:21.413148880004883px;font-family:Nunito-Light, Nunito;font-weight:300;letter-spacing:0.06197820063443641em">Ai</text><text transform="translate(6.82 28.23)" style="font-size:21.413148880004883px;fill:#fff;font-family:Nunito-Light, Nunito;font-weight:300;letter-spacing:0.06197820063443641em">Ai</text></svg>