<svg id="Layer_1" data-name="Layer 1" xmlns="http://www.w3.org/2000/svg" xmlns:xlink="http://www.w3.org/1999/xlink" viewBox="0 0 127.7 38"><defs><linearGradient id="linear-gradient" x1="42.49" y1="21.92" x2="125.19" y2="21.92" gradientUnits="userSpaceOnUse"><stop offset="0" stop-color="#d946ef"/><stop offset="1" stop-color="#8b5cf6"/></linearGradient><linearGradient id="linear-gradient-8" x1="3.14" y1="20.95" x2="34.42" y2="20.95" xlink:href="#linear-gradient"/><linearGradient id="linear-gradient-9" x1="25.61" y1="6.17" x2="35.52" y2="6.17" xlink:href="#linear-gradient"/><linearGradient id="linear-gradient-10" x1="32.02" y1="2.47" x2="37.03" y2="2.47" xlink:href="#linear-gradient"/><linearGradient id="linear-gradient-11" x1="30.56" y1="13.2" x2="36.02" y2="13.2" xlink:href="#linear-gradient"/><linearGradient id="linear-gradient-12" x1="8.01" y1="20.68" x2="27.3" y2="20.68" xlink:href="#linear-gradient"/></defs><text transform="translate(41.63 29.63)" style="font-size:30.438385009765625px;font-family:Nunito-Light, Nunito;font-weight:300;letter-spacing:-0.029997844406234177em">v<tspan x="14.58" y="0" style="letter-spacing:-0.02403035878103679em">e</tspan><tspan x="29.89" y="0" style="letter-spacing:-0.02900326346870128em">r</tspan><tspan x="39.42" y="0" style="letter-spacing:-0.02399827552498734em">si</tspan><tspan x="59.26" y="0" style="letter-spacing:-0.017998706643740505em">t</tspan><tspan x="68.91" y="0" style="letter-spacing:-0.02399827552498734em">y</tspan></text><path d="M49.39,29.82a1.22,1.22,0,0,1-.76-.25,2.07,2.07,0,0,1-.54-.73L42.61,16.06a1.24,1.24,0,0,1-.11-.69.8.8,0,0,1,.27-.51,1,1,0,0,1,.66-.2.85.85,0,0,1,.59.18,1.56,1.56,0,0,1,.35.58l5.42,13.09H49l5.45-13.09a1.44,1.44,0,0,1,.36-.58.92.92,0,0,1,.61-.18.81.81,0,0,1,.6.2.8.8,0,0,1,.22.5,1.43,1.43,0,0,1-.12.67L50.67,28.84a1.5,1.5,0,0,1-.51.73A1.31,1.31,0,0,1,49.39,29.82Z" style="fill:url(#linear-gradient)"/><path d="M65.07,29.88A8,8,0,0,1,61.14,29a6.16,6.16,0,0,1-2.52-2.61,8.7,8.7,0,0,1-.89-4.05,8.75,8.75,0,0,1,.89-4,6.56,6.56,0,0,1,6.05-3.66,6.41,6.41,0,0,1,2.64.5,5.42,5.42,0,0,1,2,1.43,6.59,6.59,0,0,1,1.23,2.25,9.87,9.87,0,0,1,.43,3,.85.85,0,0,1-.23.64.9.9,0,0,1-.63.21h-11V21.26H69.76l-.49.4a7.64,7.64,0,0,0-.52-3,4,4,0,0,0-1.53-1.9,4.46,4.46,0,0,0-2.51-.67,5.06,5.06,0,0,0-2.84.77A4.7,4.7,0,0,0,60.14,19a7.79,7.79,0,0,0-.58,3.12v.15A6.45,6.45,0,0,0,61,26.76a5.18,5.18,0,0,0,4,1.56,7.91,7.91,0,0,0,2.18-.3,6.7,6.7,0,0,0,2-1,1,1,0,0,1,.59-.22.77.77,0,0,1,.49.15.84.84,0,0,1,.27.38.6.6,0,0,1,0,.49,1.05,1.05,0,0,1-.41.47,6.83,6.83,0,0,1-2.34,1.21A9.63,9.63,0,0,1,65.07,29.88Z" style="fill:url(#linear-gradient)"/><path d="M74.9,29.82a1,1,0,0,1-.7-.25.94.94,0,0,1-.24-.7V15.63a1,1,0,0,1,.24-.73,1,1,0,0,1,.7-.24.89.89,0,0,1,.66.24,1,1,0,0,1,.22.73v2.71h-.3a5,5,0,0,1,2-2.77,6,6,0,0,1,3.4-1,.89.89,0,0,1,.61.15.67.67,0,0,1,.24.58.83.83,0,0,1-.18.65,1.17,1.17,0,0,1-.7.29l-.43,0A5.22,5.22,0,0,0,77,17.7,4.52,4.52,0,0,0,75.84,21v7.88a1,1,0,0,1-.22.7A1,1,0,0,1,74.9,29.82Z" style="fill:url(#linear-gradient)"/><path d="M88.29,29.88a10.13,10.13,0,0,1-2.72-.37A7.75,7.75,0,0,1,83,28.26a.69.69,0,0,1-.32-.38.93.93,0,0,1,0-.47.77.77,0,0,1,.21-.41.69.69,0,0,1,.41-.2.78.78,0,0,1,.52.15,7.8,7.8,0,0,0,2.31,1.1,8.73,8.73,0,0,0,2.26.31,4.88,4.88,0,0,0,2.83-.7,2.21,2.21,0,0,0,1-1.89,1.9,1.9,0,0,0-.62-1.51,5.18,5.18,0,0,0-2-.87l-2.65-.61A5.45,5.45,0,0,1,84,21.4a3.45,3.45,0,0,1-.91-2.48,3.91,3.91,0,0,1,.68-2.28,4.47,4.47,0,0,1,2-1.51,7.34,7.34,0,0,1,2.91-.53,8.4,8.4,0,0,1,2.56.39,5.93,5.93,0,0,1,2.13,1.22.83.83,0,0,1,.32.43.75.75,0,0,1,0,.47.84.84,0,0,1-.26.38.66.66,0,0,1-.43.15,1,1,0,0,1-.52-.18,6,6,0,0,0-1.85-1,6.41,6.41,0,0,0-2-.32,4.41,4.41,0,0,0-2.73.73,2.38,2.38,0,0,0-1,2,2,2,0,0,0,.59,1.52,3.93,3.93,0,0,0,1.87.88l2.65.61a6.49,6.49,0,0,1,3,1.36,3.11,3.11,0,0,1,1,2.42,3.67,3.67,0,0,1-1.54,3.09A6.84,6.84,0,0,1,88.29,29.88Z" style="fill:url(#linear-gradient)"/><path d="M98.25,11.07a1.38,1.38,0,0,1-1-.34,1.25,1.25,0,0,1-.35-.94,1.2,1.2,0,0,1,.35-.93,1.42,1.42,0,0,1,1-.32,1.45,1.45,0,0,1,1,.32,1.2,1.2,0,0,1,.35.93,1.25,1.25,0,0,1-.35.94A1.41,1.41,0,0,1,98.25,11.07Zm0,18.69a.89.89,0,0,1-.7-.28,1,1,0,0,1-.25-.73v-13a1,1,0,0,1,.25-.73.94.94,0,0,1,.7-.24.93.93,0,0,1,.67.24,1,1,0,0,1,.24.73v13a1,1,0,0,1-.23.73A.84.84,0,0,1,98.25,29.76Z" style="fill:url(#linear-gradient)"/><path d="M108.9,29.88a5.64,5.64,0,0,1-2.74-.61,3.86,3.86,0,0,1-1.64-1.75A6.42,6.42,0,0,1,104,24.7V16.36h-2.25a.93.93,0,0,1-.64-.2.68.68,0,0,1-.24-.56.65.65,0,0,1,.24-.53,1,1,0,0,1,.64-.2H104v-3.8a1,1,0,0,1,.24-.72,1,1,0,0,1,.7-.23.94.94,0,0,1,.67.23.91.91,0,0,1,.25.72v3.8h4.11a.94.94,0,0,1,.64.2.69.69,0,0,1,.21.53.73.73,0,0,1-.21.56.89.89,0,0,1-.64.2h-4.11v8.1a4.5,4.5,0,0,0,.76,2.83,3,3,0,0,0,2.52,1,3.29,3.29,0,0,0,1-.13,2.39,2.39,0,0,1,.69-.14.51.51,0,0,1,.38.18.85.85,0,0,1,.17.58,1.24,1.24,0,0,1-.11.49.51.51,0,0,1-.38.3,5.93,5.93,0,0,1-.91.23A6.07,6.07,0,0,1,108.9,29.88Z" style="fill:url(#linear-gradient)"/><path d="M116.08,35.3a.81.81,0,0,1-.57-.2.7.7,0,0,1-.23-.52,1.66,1.66,0,0,1,.1-.65l2.1-4.78V30l-6-13.94a1.34,1.34,0,0,1-.11-.69.77.77,0,0,1,.28-.51.92.92,0,0,1,.65-.2.85.85,0,0,1,.59.18,1.44,1.44,0,0,1,.35.58l5.42,13.12h-.76l5.42-13.12a1.5,1.5,0,0,1,.39-.59.94.94,0,0,1,.61-.17.73.73,0,0,1,.82.7,1.31,1.31,0,0,1-.12.67l-7.94,18.53a1.25,1.25,0,0,1-.41.58A1.13,1.13,0,0,1,116.08,35.3Z" style="fill:url(#linear-gradient)"/><path d="M20.23,6.17H7.46A3.57,3.57,0,0,0,3.89,9.74V32.15a3.57,3.57,0,0,0,3.57,3.58H30.1a3.57,3.57,0,0,0,3.57-3.58V19.43" style="fill:none;stroke-linecap:round;stroke-miterlimit:10;stroke-width:1.5px;stroke:url(#linear-gradient-8)"/><path d="M30.56,1.21l.25,2.19a2.86,2.86,0,0,0,2.53,2.52l2.18.25-2.18.25a2.86,2.86,0,0,0-2.53,2.52l-.25,2.19-.24-2.19a2.86,2.86,0,0,0-2.53-2.52l-2.18-.25,2.18-.25A2.86,2.86,0,0,0,30.32,3.4Z" style="fill:url(#linear-gradient-9)"/><path d="M34.53,0l.12,1.1a1.47,1.47,0,0,0,1.28,1.28l1.1.12-1.1.12a1.47,1.47,0,0,0-1.28,1.28L34.53,5l-.13-1.1a1.45,1.45,0,0,0-1.27-1.28L32,2.47l1.11-.12A1.45,1.45,0,0,0,34.4,1.07Z" style="fill:url(#linear-gradient-10)"/><path d="M33.29,10.47l.14,1.2a1.57,1.57,0,0,0,1.39,1.39l1.2.14-1.2.14a1.57,1.57,0,0,0-1.39,1.39l-.14,1.2-.13-1.2a1.57,1.57,0,0,0-1.39-1.39l-1.21-.14,1.21-.14a1.57,1.57,0,0,0,1.39-1.39Z" style="fill:url(#linear-gradient-11)"/><text transform="translate(7.19 28.23)" style="font-size:21.413148880004883px;font-family:Nunito-Light, Nunito;font-weight:300;letter-spacing:0.06197820063443641em">Ai</text><path d="M8.62,28.35a.82.82,0,0,1-.44-.11A.45.45,0,0,1,8,27.9a1.24,1.24,0,0,1,.1-.47l6-13.83a1.09,1.09,0,0,1,.36-.46.81.81,0,0,1,.43-.14.83.83,0,0,1,.46.14,1,1,0,0,1,.33.46l6,13.83a1.13,1.13,0,0,1,.12.47.47.47,0,0,1-.15.34.72.72,0,0,1-.42.11.68.68,0,0,1-.48-.16,1.06,1.06,0,0,1-.31-.44l-1.65-3.87.7.32H10.27l.73-.32L9.35,27.75a1,1,0,0,1-.31.46A.63.63,0,0,1,8.62,28.35ZM14.9,14.76l-3.64,8.56-.5-.26h8.29l-.45.26-3.66-8.56Z" style="fill:url(#linear-gradient-12)"/><path d="M26.35,15.16a.93.93,0,0,1-.69-.23.87.87,0,0,1-.25-.67.82.82,0,0,1,.25-.65,1,1,0,0,1,.69-.22,1,1,0,0,1,.7.22.86.86,0,0,1,.25.65.91.91,0,0,1-.25.67A1,1,0,0,1,26.35,15.16Zm0,13.15a.61.61,0,0,1-.49-.19.77.77,0,0,1-.17-.52V18.44a.7.7,0,0,1,.17-.51.64.64,0,0,1,.49-.18.61.61,0,0,1,.47.18.66.66,0,0,1,.18.51V27.6a.77.77,0,0,1-.17.52A.57.57,0,0,1,26.35,28.31Z" style="fill:url(#linear-gradient-12)"/></svg>