<svg id="Layer_1" data-name="Layer 1" xmlns="http://www.w3.org/2000/svg" xmlns:xlink="http://www.w3.org/1999/xlink" viewBox="0 0 127.7 38"><defs><linearGradient id="linear-gradient" x1="4.15" y1="19.86" x2="33.56" y2="19.86" gradientTransform="matrix(1, 0, 0, -1, 0, 40)" gradientUnits="userSpaceOnUse"><stop offset="0" stop-color="#d946ef"/><stop offset="1" stop-color="#8b5cf6"/></linearGradient><linearGradient id="linear-gradient-2" x1="27.46" y1="33.92" x2="36.75" y2="33.92" xlink:href="#linear-gradient"/><linearGradient id="linear-gradient-3" x1="33.47" y1="37.43" x2="38.17" y2="37.43" xlink:href="#linear-gradient"/><linearGradient id="linear-gradient-4" x1="32.11" y1="27.34" x2="37.22" y2="27.34" xlink:href="#linear-gradient"/><linearGradient id="linear-gradient-5" x1="42.56" y1="20.23" x2="123.81" y2="20.23" xlink:href="#linear-gradient"/><linearGradient id="linear-gradient-6" x1="42.56" y1="17.06" x2="123.81" y2="17.06" xlink:href="#linear-gradient"/><linearGradient id="linear-gradient-7" x1="42.56" y1="17.16" x2="123.81" y2="17.16" xlink:href="#linear-gradient"/><linearGradient id="linear-gradient-8" x1="42.56" y1="17.06" x2="123.81" y2="17.06" xlink:href="#linear-gradient"/><linearGradient id="linear-gradient-9" x1="42.56" y1="19.95" x2="123.81" y2="19.95" xlink:href="#linear-gradient"/><linearGradient id="linear-gradient-10" x1="42.56" y1="19.16" x2="123.81" y2="19.16" xlink:href="#linear-gradient"/><linearGradient id="linear-gradient-11" x1="42.56" y1="14.5" x2="123.81" y2="14.5" xlink:href="#linear-gradient"/><linearGradient id="linear-gradient-12" x1="9.54" y1="19.08" x2="27.88" y2="19.08" xlink:href="#linear-gradient"/><linearGradient id="linear-gradient-13" x1="9.54" y1="18.92" x2="27.88" y2="18.92" xlink:href="#linear-gradient"/></defs><path d="M20.22,6.29h-12A3.35,3.35,0,0,0,4.9,9.64v21A3.35,3.35,0,0,0,8.24,34H29.47a3.35,3.35,0,0,0,3.34-3.34h0V18.73" style="fill:none;stroke-linecap:round;stroke-miterlimit:10;stroke-width:1.5px;stroke:url(#linear-gradient)"/><path d="M32.11,1.43l.23,2A2.68,2.68,0,0,0,34.7,5.84l2,.23-2,.23a2.7,2.7,0,0,0-2.36,2.37l-.23,2.05-.24-2.05A2.7,2.7,0,0,0,29.51,6.3l-2.05-.23,2.05-.23a2.69,2.69,0,0,0,2.36-2.37Z" style="fill:url(#linear-gradient-2)"/><path d="M35.82.26l.12,1a1.36,1.36,0,0,0,1.19,1.2l1,.11-1,.12a1.36,1.36,0,0,0-1.19,1.2l-.12,1-.11-1a1.36,1.36,0,0,0-1.2-1.2l-1-.12,1-.11a1.36,1.36,0,0,0,1.2-1.2Z" style="fill:url(#linear-gradient-3)"/><path d="M34.66,10.1l.13,1.13a1.49,1.49,0,0,0,1.31,1.31l1.12.12-1.12.13a1.5,1.5,0,0,0-1.31,1.3l-.13,1.13-.12-1.13a1.5,1.5,0,0,0-1.31-1.3l-1.12-.13,1.12-.12a1.49,1.49,0,0,0,1.31-1.31Z" style="fill:url(#linear-gradient-4)"/><g style="isolation:isolate"><text transform="translate(42.12 29.87)" style="isolation:isolate;font-size:28.532339096069336px;fill:none;font-family:Nunito-Light, Nunito;font-weight:300;letter-spacing:-0.08000447618626791em">V</text><text transform="translate(59.15 29.87)" style="isolation:isolate;font-size:28.532339096069336px;fill:none;font-family:Nunito-Light, Nunito;font-weight:300;letter-spacing:-0.023000217324993383em">e</text><text transform="translate(73.51 29.87)" style="isolation:isolate;font-size:28.532339096069336px;fill:none;font-family:Nunito-Light, Nunito;font-weight:300;letter-spacing:-0.027997288350959208em">r</text><text transform="translate(82.44 29.87)" style="isolation:isolate;font-size:28.532339096069336px;fill:none;font-family:Nunito-Light, Nunito;font-weight:300;letter-spacing:-0.02399278622741125em">si</text><text transform="translate(101.04 29.87)" style="isolation:isolate;font-size:28.532339096069336px;fill:none;font-family:Nunito-Light, Nunito;font-weight:300;letter-spacing:-0.01800314629902756em">t</text><text transform="translate(110.08 29.87)" style="isolation:isolate;font-size:28.532339096069336px;fill:none;font-family:Nunito-Light, Nunito;font-weight:300;letter-spacing:-0.023000217324993383em">y</text></g><path d="M51.79,30a1.07,1.07,0,0,1-.67-.21,1.79,1.79,0,0,1-.47-.62l-8-18.52a1.16,1.16,0,0,1,0-.61.55.55,0,0,1,.28-.37,1.06,1.06,0,0,1,.52-.13,1,1,0,0,1,.59.17,1.59,1.59,0,0,1,.37.52l7.88,18.31h-.8L59.3,10.27a1.09,1.09,0,0,1,.37-.52,1,1,0,0,1,.6-.17.84.84,0,0,1,.51.14.6.6,0,0,1,.24.39,1,1,0,0,1-.1.58l-8,18.52a1.3,1.3,0,0,1-.41.62A1.08,1.08,0,0,1,51.79,30Z" style="fill:url(#linear-gradient-5)"/><path d="M67.46,30.1a7.47,7.47,0,0,1-3.68-.86,5.78,5.78,0,0,1-2.37-2.45,8.2,8.2,0,0,1-.83-3.8,8.25,8.25,0,0,1,.83-3.78,6.17,6.17,0,0,1,5.68-3.44,6,6,0,0,1,2.46.47,5.19,5.19,0,0,1,1.83,1.35,6.14,6.14,0,0,1,1.16,2.11,9.54,9.54,0,0,1,.39,2.81.72.72,0,0,1-.79.8H61.84V22h10l-.46.37a7.3,7.3,0,0,0-.48-2.81,3.87,3.87,0,0,0-1.44-1.78,4.19,4.19,0,0,0-2.36-.63,4.6,4.6,0,0,0-2.65.73,4.49,4.49,0,0,0-1.63,2,7.31,7.31,0,0,0-.54,2.92V23a6,6,0,0,0,1.34,4.21,4.84,4.84,0,0,0,3.77,1.47,7.1,7.1,0,0,0,2-.28,6.33,6.33,0,0,0,1.93-1,.87.87,0,0,1,.55-.2.73.73,0,0,1,.71.95,1.1,1.1,0,0,1-.39.44A6.41,6.41,0,0,1,70,29.71,8.74,8.74,0,0,1,67.46,30.1Z" style="fill:url(#linear-gradient-6)"/><path d="M76.67,30a.91.91,0,0,1-.65-.23.82.82,0,0,1-.23-.65V16.74a.82.82,0,0,1,.7-.91h.18a.84.84,0,0,1,.62.23,1,1,0,0,1,.21.68v2.54h-.29a4.78,4.78,0,0,1,1.84-2.59,5.68,5.68,0,0,1,3.19-1,.84.84,0,0,1,.57.15.62.62,0,0,1,.23.54.76.76,0,0,1-.18.61,1,1,0,0,1-.65.27h-.4a4.92,4.92,0,0,0-3.14,1.34,4.24,4.24,0,0,0-1.11,3.09v7.39a.79.79,0,0,1-.69.88h-.2Z" style="fill:url(#linear-gradient-7)"/><path d="M89.23,30.1a9.58,9.58,0,0,1-2.56-.35,7,7,0,0,1-2.41-1.17.69.69,0,0,1-.3-.35.82.82,0,0,1,0-.44.81.81,0,0,1,.2-.39.64.64,0,0,1,.39-.18.65.65,0,0,1,.48.14,7.68,7.68,0,0,0,4.28,1.29A4.51,4.51,0,0,0,91.94,28a2,2,0,0,0,.91-1.77,1.77,1.77,0,0,0-.59-1.41A4.7,4.7,0,0,0,90.37,24l-2.49-.57a5.22,5.22,0,0,1-2.65-1.3,3.22,3.22,0,0,1-.85-2.33A3.6,3.6,0,0,1,85,17.69a4.1,4.1,0,0,1,1.82-1.42,6.92,6.92,0,0,1,2.73-.5,8.18,8.18,0,0,1,2.4.37,5.56,5.56,0,0,1,2,1.15.79.79,0,0,1,.3.4.66.66,0,0,1,0,.44.79.79,0,0,1-.24.35.59.59,0,0,1-.4.15,1,1,0,0,1-.49-.17,5.84,5.84,0,0,0-3.59-1.23,4.18,4.18,0,0,0-2.55.68,2.22,2.22,0,0,0-.9,1.86,1.84,1.84,0,0,0,.55,1.42A3.78,3.78,0,0,0,88.4,22l2.48.57a6.06,6.06,0,0,1,2.77,1.27,2.94,2.94,0,0,1,.91,2.27A3.44,3.44,0,0,1,93.12,29,6.4,6.4,0,0,1,89.23,30.1Z" style="fill:url(#linear-gradient-8)"/><path d="M98.56,12.46a1.31,1.31,0,0,1-.93-.31,1.14,1.14,0,0,1-.33-.88,1.14,1.14,0,0,1,.33-.87,1.58,1.58,0,0,1,1.85,0,1.14,1.14,0,0,1,.33.87,1.14,1.14,0,0,1-.33.88A1.27,1.27,0,0,1,98.56,12.46Zm0,17.52a.81.81,0,0,1-.66-.25,1,1,0,0,1-.23-.69V16.83a1,1,0,0,1,.23-.69.89.89,0,0,1,.66-.22.88.88,0,0,1,.62.22.92.92,0,0,1,.23.69V29a1.07,1.07,0,0,1-.21.69.8.8,0,0,1-.64.31Z" style="fill:url(#linear-gradient-9)"/><path d="M108.54,30.1a5.2,5.2,0,0,1-2.57-.57,3.7,3.7,0,0,1-1.54-1.64,6.13,6.13,0,0,1-.51-2.64V17.43h-2.11a.86.86,0,0,1-.6-.19.65.65,0,0,1-.23-.52.61.61,0,0,1,.23-.5.86.86,0,0,1,.6-.19h2.11V12.46a.87.87,0,1,1,1.74,0V16h3.85a.82.82,0,0,1,.6.19.63.63,0,0,1,.2.5.68.68,0,0,1-.2.52.82.82,0,0,1-.6.19h-3.85V25a4.28,4.28,0,0,0,.71,2.65,2.82,2.82,0,0,0,2.37.91,3.38,3.38,0,0,0,1-.12,2,2,0,0,1,.64-.13.46.46,0,0,1,.36.17.81.81,0,0,1,.15.54,1,1,0,0,1-.1.46.46.46,0,0,1-.35.28,5.17,5.17,0,0,1-.86.22A6,6,0,0,1,108.54,30.1Z" style="fill:url(#linear-gradient-10)"/><path d="M115.28,35.18a.79.79,0,0,1-.55-.19.68.68,0,0,1-.21-.48,1.47,1.47,0,0,1,.1-.62l2-4.48v.8L111,17.14a1.17,1.17,0,0,1-.1-.64.73.73,0,0,1,.25-.48.88.88,0,0,1,.62-.19.84.84,0,0,1,.55.17,1.43,1.43,0,0,1,.33.54l5.08,12.3H117l5.07-12.3a1.49,1.49,0,0,1,.37-.55.91.91,0,0,1,.58-.16.72.72,0,0,1,.77.65h0a1.21,1.21,0,0,1-.12.62l-7.44,17.38a1.23,1.23,0,0,1-.39.54A1,1,0,0,1,115.28,35.18Z" style="fill:url(#linear-gradient-11)"/><text transform="translate(8.67 28.84)" style="isolation:isolate;font-size:22.522865295410156px;fill:none;font-family:Nunito-Light, Nunito;font-weight:300;letter-spacing:-0.02300179837045754em">Ai</text><path d="M10.18,29a.69.69,0,0,1-.46-.13.42.42,0,0,1-.18-.34,1.09,1.09,0,0,1,.1-.5L16,13.46a1,1,0,0,1,.38-.48.81.81,0,0,1,.45-.15.86.86,0,0,1,.49.15,1,1,0,0,1,.34.48L24,28a1.09,1.09,0,0,1,.13.5.44.44,0,0,1-.16.34.64.64,0,0,1-.44.13A.73.73,0,0,1,23,28.8a1.65,1.65,0,0,1-.32-.46L21,24.26l.75.34h-9.8l.77-.34L11,28.35a1.15,1.15,0,0,1-.33.48A.69.69,0,0,1,10.18,29Zm6.6-14.3L13,23.7l-.52-.28h8.72l-.47.28-3.86-9Z" style="fill:url(#linear-gradient-12)"/><path d="M26.89,15.1a1,1,0,0,1-.73-.24,1,1,0,0,1-.26-.7.88.88,0,0,1,.26-.69,1.23,1.23,0,0,1,1.46,0,.88.88,0,0,1,.26.69.92.92,0,0,1-.26.7A1,1,0,0,1,26.89,15.1Zm0,13.83a.67.67,0,0,1-.52-.2.75.75,0,0,1-.18-.54V18.55a.63.63,0,0,1,.7-.72.68.68,0,0,1,.5.18.71.71,0,0,1,.18.54v9.64a.81.81,0,0,1-.17.54A.62.62,0,0,1,26.89,28.93Z" style="fill:url(#linear-gradient-13)"/></svg>